<?xml version="1.0" encoding="utf-8"?>
<!-- Generator: Adobe Illustrator 21.0.2, SVG Export Plug-In . SVG Version: 6.00 Build 0)  -->
<svg version="1.1" id="Layer_1" xmlns="http://www.w3.org/2000/svg" xmlns:xlink="http://www.w3.org/1999/xlink" x="0px" y="0px"
	 viewBox="0 0 29.2 62.6" enable-background="new 0 0 29.2 62.6" xml:space="preserve">
<path id="Facebook_3_" fill="#fff" d="M6.3,12.1c0,1.6,0,8.6,0,8.6H0v10.5h6.3v31.3h13V31.3h8.7c0,0,0.8-5,1.2-10.6
	c-1.1,0-9.8,0-9.8,0s0-6.1,0-7.2c0-1.1,1.4-2.5,2.8-2.5c1.4,0,4.3,0,7.1,0c0-1.4,0-6.4,0-11c-3.6,0-7.8,0-9.6,0
	C6,0,6.3,10.6,6.3,12.1z"/>
</svg>
