<?xml version="1.0" encoding="utf-8"?>
<!-- Generator: Adobe Illustrator 21.0.2, SVG Export Plug-In . SVG Version: 6.00 Build 0)  -->
<svg version="1.1" id="Layer_1" xmlns="http://www.w3.org/2000/svg" xmlns:xlink="http://www.w3.org/1999/xlink" x="0px" y="0px"
	 viewBox="0 0 65.5 62.6" enable-background="new 0 0 65.5 62.6" xml:space="preserve">
<path id="LinkedIn_3_" fill="#fff" d="M65.5,38.3v24.2h-14V40c0-5.7-2-9.5-7.1-9.5c-3.9,0-6.2,2.6-7.2,5.1
	c-0.4,0.9-0.5,2.2-0.5,3.4v23.6h-14c0,0,0.2-38.2,0-42.2h14v6c0,0-0.1,0.1-0.1,0.1h0.1v-0.1c1.9-2.9,5.2-7,12.6-7
	C58.5,19.3,65.5,25.4,65.5,38.3z M7.9,0C3.1,0,0,3.1,0,7.3c0,4,3,7.3,7.8,7.3h0.1c4.9,0,7.9-3.3,7.9-7.3C15.7,3.1,12.7,0,7.9,0z
	 M0.8,62.6h14V20.3h-14V62.6z"/>
</svg>
