<?xml version="1.0" standalone="no"?>
<!DOCTYPE svg PUBLIC "-//W3C//DTD SVG 20010904//EN"
 "http://www.w3.org/TR/2001/REC-SVG-20010904/DTD/svg10.dtd">
<svg version="1.0" xmlns="http://www.w3.org/2000/svg"
 width="5310.000000pt" height="5325.000000pt" viewBox="0 0 5310.000000 5325.000000"
 preserveAspectRatio="xMidYMid meet">

<g transform="translate(0.000000,5325.000000) scale(0.100000,-0.100000)"
fill="#000000" stroke="none">
<path d="M27366 45191 c-4 -5 -2 -12 3 -15 5 -4 12 -2 15 3 4 5 2 12 -3 15 -5
4 -12 2 -15 -3z"/>
<path d="M27446 45111 c-4 -5 -2 -12 3 -15 5 -4 12 -2 15 3 4 5 2 12 -3 15 -5
4 -12 2 -15 -3z"/>
<path d="M27526 45031 c-4 -5 -2 -12 3 -15 5 -4 12 -2 15 3 4 5 2 12 -3 15 -5
4 -12 2 -15 -3z"/>
<path d="M33230 43996 c0 -2 7 -7 16 -10 8 -3 12 -2 9 4 -6 10 -25 14 -25 6z"/>
<path d="M31860 43371 c0 -6 4 -13 10 -16 6 -3 7 1 4 9 -7 18 -14 21 -14 7z"/>
<path d="M17163 40235 c0 -8 4 -12 9 -9 5 3 6 10 3 15 -9 13 -12 11 -12 -6z"/>
<path d="M26989 40026 c-2 -2 -67 -6 -144 -10 -203 -9 -253 -18 -417 -78 -32
-11 -65 -18 -73 -14 -9 3 -13 2 -10 -4 3 -5 -34 -29 -82 -54 -185 -93 -434
-298 -586 -484 -133 -163 -272 -398 -347 -586 -44 -111 -77 -256 -95 -415 -8
-75 -18 -149 -21 -165 -7 -32 7 -232 14 -203 2 10 10 16 17 14 7 -3 28 10 46
30 44 45 128 105 259 184 58 35 186 124 285 199 148 112 280 200 298 200 2 0
7 -39 10 -87 13 -195 98 -367 261 -528 99 -98 191 -162 361 -251 252 -131 313
-188 341 -312 20 -92 44 -143 80 -171 82 -65 143 -27 223 138 58 121 124 231
139 231 24 0 132 -60 171 -95 84 -76 131 -223 112 -346 -6 -34 -24 -91 -41
-126 -54 -116 -206 -239 -346 -280 l-62 -17 -17 -56 c-49 -157 -150 -324 -278
-457 l-80 -84 2 -107 c5 -250 38 -1043 44 -1048 3 -3 22 -1 44 5 102 29 274 4
366 -53 36 -22 40 -23 95 -10 372 88 970 -237 1641 -891 499 -486 932 -1055
1294 -1700 91 -161 737 -1428 737 -1445 0 -4 -35 -20 -77 -34 l-78 -26 -1 -67
c-1 -79 -73 -446 -145 -743 -47 -189 -164 -609 -188 -672 -6 -16 -7 -28 -3
-28 4 0 57 20 117 44 509 201 680 266 690 262 6 -2 38 -48 70 -102 32 -55 100
-160 151 -235 l92 -136 -404 -404 -404 -404 387 -387 c213 -213 390 -385 395
-382 4 3 8 12 8 20 0 25 67 162 111 228 191 281 595 552 1149 771 179 71 542
191 713 236 70 18 126 36 125 40 -2 3 -64 47 -138 97 -212 144 -465 354 -610
509 -125 134 -149 161 -232 264 -558 694 -850 1562 -825 2454 8 296 37 519
102 791 296 1230 1222 2250 2421 2667 254 88 502 146 784 184 168 22 703 26
870 5 980 -121 1820 -567 2453 -1305 396 -461 681 -1033 811 -1627 66 -302 81
-450 81 -820 0 -389 -22 -578 -106 -915 -134 -535 -397 -1053 -753 -1483 -101
-122 -297 -323 -402 -414 l-86 -73 84 -7 c340 -31 448 -42 638 -64 290 -34
568 -76 849 -130 128 -25 235 -43 237 -41 2 2 -37 43 -86 92 -50 49 -90 93
-90 98 0 4 38 62 83 130 46 67 105 157 131 199 42 69 50 76 69 69 45 -18 302
-124 662 -274 292 -121 372 -151 378 -140 12 20 557 1334 557 1342 0 5 -73 38
-162 75 -397 164 -893 370 -897 373 -2 2 12 87 32 190 20 104 40 211 44 238
l8 50 583 3 582 2 0 735 0 735 -588 0 -588 0 -37 185 c-21 102 -38 190 -40
196 -1 6 129 62 288 125 659 261 800 317 804 320 2 2 -33 94 -77 206 -45 112
-124 313 -177 448 -54 135 -135 342 -182 460 -47 118 -89 225 -93 237 -9 21
-15 19 -262 -79 -565 -223 -861 -339 -863 -336 -1 2 -38 62 -83 133 -45 72
-113 173 -151 225 l-68 95 425 427 426 427 -523 522 -522 523 -427 -427 c-235
-235 -430 -427 -434 -427 -4 0 -51 31 -105 68 -54 38 -137 93 -185 123 -48 30
-88 57 -88 61 0 7 107 266 366 887 52 124 91 228 87 232 -5 4 -57 27 -118 52
-136 55 -584 240 -645 267 -135 58 -578 240 -586 240 -5 0 -33 -60 -63 -133
-29 -72 -66 -161 -81 -197 -15 -36 -76 -182 -135 -325 -164 -396 -186 -449
-194 -458 -4 -4 -56 4 -117 17 -60 14 -152 32 -204 41 -52 8 -105 18 -117 20
l-23 5 0 610 0 610 -735 0 -735 0 0 -610 0 -610 -22 -4 c-100 -21 -351 -66
-353 -64 -3 4 -148 371 -417 1058 -12 30 -25 59 -29 63 -4 5 -121 -36 -260
-92 -344 -136 -914 -361 -1021 -402 -49 -19 -88 -37 -88 -41 0 -5 47 -126 104
-270 57 -145 136 -346 176 -448 40 -102 92 -233 116 -292 24 -59 44 -109 44
-112 0 -2 -46 -32 -102 -67 -57 -34 -158 -100 -225 -146 -68 -45 -126 -83
-130 -83 -5 0 -199 191 -433 425 l-425 425 -517 -517 c-285 -285 -518 -521
-518 -525 0 -4 189 -196 421 -427 281 -281 418 -425 413 -433 -5 -7 -38 -54
-75 -105 -37 -51 -92 -133 -123 -182 l-57 -90 -35 17 c-29 13 -44 33 -80 106
-78 157 -191 290 -364 430 -86 69 -271 194 -547 370 -238 151 -311 212 -578
475 -166 165 -276 264 -327 298 -42 28 -82 53 -88 55 -8 2 -29 131 -60 370
-96 735 -157 1045 -276 1408 -29 91 -54 170 -55 175 -1 6 -13 31 -26 58 -13
26 -21 52 -18 57 3 6 2 10 -3 10 -5 0 -24 35 -43 78 -18 42 -50 107 -71 143
-21 36 -38 71 -38 77 0 6 -4 12 -8 14 -4 2 -25 32 -47 67 -71 118 -188 265
-307 387 -65 66 -115 123 -112 126 3 3 0 9 -7 14 -8 4 -10 3 -5 -4 14 -24 -10
-11 -47 24 -42 40 -281 204 -298 204 -5 0 -7 6 -3 13 4 6 4 9 0 5 -4 -3 -45
11 -91 33 -46 21 -130 54 -187 74 -57 19 -110 38 -118 42 -8 3 -24 8 -35 10
-11 2 -27 6 -35 9 -8 4 -26 8 -40 10 -33 4 -121 24 -140 31 -8 4 -19 5 -23 4
-8 -1 -44 4 -147 23 -14 2 -52 12 -85 21 -53 15 -295 32 -306 21z"/>
<path d="M33126 39431 c-4 -5 -2 -12 3 -15 5 -4 12 -2 15 3 4 5 2 12 -3 15 -5
4 -12 2 -15 -3z"/>
<path d="M33206 39351 c-4 -5 -2 -12 3 -15 5 -4 12 -2 15 3 4 5 2 12 -3 15 -5
4 -12 2 -15 -3z"/>
<path d="M33286 39271 c-4 -5 -2 -13 4 -16 8 -5 7 -12 -2 -23 -11 -15 -11 -15
4 -4 15 12 18 35 6 47 -3 4 -9 2 -12 -4z"/>
<path d="M33209 39153 c-13 -16 -12 -17 4 -4 16 13 21 21 13 21 -2 0 -10 -8
-17 -17z"/>
<path d="M33129 39073 c-13 -16 -12 -17 4 -4 16 13 21 21 13 21 -2 0 -10 -8
-17 -17z"/>
<path d="M33049 38993 c-13 -16 -12 -17 4 -4 16 13 21 21 13 21 -2 0 -10 -8
-17 -17z"/>
<path d="M32969 38913 c-13 -16 -12 -17 4 -4 9 7 17 15 17 17 0 8 -8 3 -21
-13z"/>
<path d="M32889 38833 c-13 -16 -12 -17 4 -4 16 13 21 21 13 21 -2 0 -10 -8
-17 -17z"/>
<path d="M32809 38753 c-13 -16 -12 -17 4 -4 16 13 21 21 13 21 -2 0 -10 -8
-17 -17z"/>
<path d="M32729 38673 c-13 -16 -12 -17 4 -4 16 13 21 21 13 21 -2 0 -10 -8
-17 -17z"/>
<path d="M32649 38593 c-13 -16 -12 -17 4 -4 16 13 21 21 13 21 -2 0 -10 -8
-17 -17z"/>
<path d="M25211 37974 c0 -11 3 -14 6 -6 3 7 2 16 -1 19 -3 4 -6 -2 -5 -13z"/>
<path d="M25141 37290 c-22 -157 -18 -401 8 -530 26 -126 40 -176 142 -489
151 -464 185 -635 176 -891 -4 -109 -13 -191 -31 -275 -14 -65 -24 -120 -22
-122 1 -1 56 4 121 12 66 8 137 15 159 15 l39 0 -6 63 c-4 34 -9 101 -13 150
l-7 87 80 0 c394 0 785 234 1035 620 49 76 108 181 108 194 0 3 -37 -15 -82
-39 -179 -95 -365 -137 -603 -138 -267 0 -471 58 -629 178 -278 211 -429 586
-454 1130 l-7 140 -14 -105z"/>
<path d="M15616 36268 c3 -5 10 -6 15 -3 13 9 11 12 -6 12 -8 0 -12 -4 -9 -9z"/>
<path d="M15646 36167 c3 -10 9 -15 12 -12 3 3 0 11 -7 18 -10 9 -11 8 -5 -6z"/>
<path d="M17079 34333 c-13 -16 -12 -17 4 -4 16 13 21 21 13 21 -2 0 -10 -8
-17 -17z"/>
<path d="M27986 32814 c-14 -147 -26 -1162 -20 -1599 l7 -460 86 -105 c210
-257 393 -391 657 -479 171 -57 298 -73 569 -72 366 2 556 13 566 31 11 20
139 514 139 536 0 9 -35 61 -77 115 -67 85 -84 101 -118 110 -247 62 -256 68
-381 232 -335 441 -1033 1305 -1395 1730 l-26 30 -7 -69z"/>
<path d="M26490 29090 c-800 -26 -1456 -48 -1457 -49 -14 -10 -164 -425 -281
-776 -369 -1104 -655 -2204 -772 -2965 -54 -348 -60 -442 -70 -1010 -20 -1170
-42 -3244 -44 -4024 l-1 -819 425 2 c234 1 745 6 1135 11 391 5 1059 14 1485
20 2149 28 2858 42 2881 56 27 16 -27 703 -226 2904 -111 1220 -150 1674 -175
2015 -49 667 -125 1152 -271 1740 -174 697 -403 1349 -726 2065 -121 268 -426
880 -437 879 -6 -1 -666 -23 -1466 -49z"/>
<path d="M25093 12915 c-61 -43 -190 -78 -298 -82 -93 -4 -107 -2 -198 30
l-98 35 -87 -66 c-192 -143 -373 -256 -502 -312 -203 -89 -363 -125 -613 -139
-151 -8 -173 -11 -222 -35 -65 -32 -98 -69 -139 -156 -28 -59 -31 -74 -31
-165 0 -91 2 -104 27 -146 30 -51 100 -103 157 -119 149 -39 509 -57 821 -41
243 13 378 29 559 66 388 79 679 180 750 260 30 35 31 38 31 138 0 200 -48
623 -78 691 -27 60 -41 67 -79 41z"/>
<path d="M30690 12876 c-24 -22 -169 -74 -244 -87 -102 -17 -201 -2 -347 56
-10 4 -47 -18 -105 -61 -152 -114 -324 -223 -449 -284 -218 -107 -368 -146
-622 -160 -94 -5 -184 -12 -200 -16 -87 -21 -177 -106 -214 -202 -30 -78 -32
-198 -3 -262 23 -51 71 -103 116 -126 34 -18 146 -38 307 -55 109 -11 612 -7
781 7 110 9 357 54 530 96 297 72 501 150 565 218 l30 31 -2 127 c-2 120 -28
403 -54 573 -10 72 -42 149 -64 156 -6 2 -17 -3 -25 -11z"/>
</g>
</svg>
