<svg id="Layer_1" data-name="Layer 1" xmlns="http://www.w3.org/2000/svg" width="340" height="340" viewBox="0 0 340 340">
  <defs>
    <style>
      .cls-1 {
        fill: #2db6e5;
      }

      .cls-2 {
        fill: #232829;
      }
    </style>
  </defs>
  <title>website-optimization</title>
  <circle class="cls-1" cx="169.57" cy="60.35" r="57.52"/>
  <rect class="cls-1" x="145.67" y="100.27" width="48" height="53.82"/>
  <polygon class="cls-1" points="6.5 300.29 122 300.29 130 312.5 209 312.5 220.97 300.29 331.5 300.29 334.5 318.71 322 335.5 19.5 335.5 6.5 320.5 6.5 300.29"/>
  <path class="cls-1" d="M114,73.75H29.25l-11.5,12V298.67H119l12.41,12.4H208l13-10.78H323.33V85l-14-13.34H229.67L219,89.82s1,5.14,2,6,79.36,0,79.36,0V263.15h-259V95.81H119Z"/>
  <path class="cls-2" d="M164.33,283.33h11.34v11.34H164.33Zm175.67,17v17A22.67,22.67,0,0,1,317.33,340H22.67A22.67,22.67,0,0,1,0,317.33v-17a5.66,5.66,0,0,1,5.67-5.66h5.66v-204A22.67,22.67,0,0,1,34,68h74.06c-.17-1.88-.39-3.75-.39-5.67a62.33,62.33,0,0,1,124.66,0c0,1.92-.22,3.79-.39,5.67H306a22.67,22.67,0,0,1,22.67,22.67v204h5.66A5.66,5.66,0,0,1,340,300.33ZM123.31,41.9a51,51,0,0,0,26.29,67.16,5.67,5.67,0,0,1,3.4,5.19v10.42h11.33v-43l-21-21,8-8L170,71.32l18.66-18.66,8,8-21,21v43H187V114.25a5.67,5.67,0,0,1,3.4-5.19A51,51,0,1,0,123.31,41.9ZM238,158.67V102H218.05a62.44,62.44,0,0,1-19.72,15.87v6.8h11.34V136H198.33v17a5.66,5.66,0,0,1-5.66,5.67H147.33a5.66,5.66,0,0,1-5.66-5.67V136H130.33V124.67h11.34v-6.8A62.44,62.44,0,0,1,122,102H73.67v17h39.66v11.33H73.67v28.34H62.33V102h-17v73.67H90.67V153a5.66,5.66,0,0,1,5.66-5.67h28.34v11.34H102V204h62.33a5.67,5.67,0,0,1,5.67,5.67v22.66h17V187H119V175.67h90.67V147.33H221v28.34h45.33V119h11.34v62.33A5.67,5.67,0,0,1,272,187H198.33v45.33h28.34v11.34H164.33a5.66,5.66,0,0,1-5.66-5.67V215.33H96.33a5.65,5.65,0,0,1-5.66-5.66V187H45.33v73.67h68v-17H68A5.67,5.67,0,0,1,62.33,238V204H73.67v28.33h68v11.34h-17v17h170V215.33H255v17h22.67v11.34H249.33a5.66,5.66,0,0,1-5.66-5.67V215.33H215.33V204h79.34V102H249.33v56.67ZM153,136v11.33h34V136ZM22.67,294.67H119a5.66,5.66,0,0,1,4,1.66l9.67,9.67h74.64l9.67-9.67a5.66,5.66,0,0,1,4-1.66h96.33v-204A11.34,11.34,0,0,0,306,79.33H230a62,62,0,0,1-4.6,11.34h75A5.66,5.66,0,0,1,306,96.33v170a5.67,5.67,0,0,1-5.67,5.67H39.67A5.67,5.67,0,0,1,34,266.33v-170a5.66,5.66,0,0,1,5.67-5.66h75A62,62,0,0,1,110,79.33H34A11.34,11.34,0,0,0,22.67,90.67Zm306,11.33H223.35l-9.68,9.67a5.62,5.62,0,0,1-4,1.66H130.33a5.62,5.62,0,0,1-4-1.66L116.65,306H11.33v11.33a11.34,11.34,0,0,0,11.34,11.34H317.33a11.34,11.34,0,0,0,11.34-11.34Z"/>
</svg>
